# xmcd CD database file
#
# Track frame offsets:
#	150
#	28635
#	47770
#	65245
#	81767
#	98620
#	119270
#	138360
#	161377
#
# Disc length: 2422 seconds
#
# Revision: 0
# Processed by: cddbd v1.5.1PL0 Copyright (c) Steve Scherf et al.
# Submitted via: CDex 1.51
#
DISCID=70097409
DTITLE=Kevin Johnson - In The Spirit Of The Times
DYEAR=1985
DGENRE=Country
TTITLE0=Friends Of Mine
TTITLE1=A Hard Akt To Follow
TTITLE2=Child Of Today
TTITLE3=State Of Change
TTITLE4=A Few Good Season
TTITLE5=The Night Comes
TTITLE6=The Last Of The Latin Lovers
TTITLE7=Shelter
TTITLE8=In The Spirit Of The Times
EXTD=YEAR: 1985
EXTT0=
EXTT1=
EXTT2=
EXTT3=
EXTT4=
EXTT5=
EXTT6=
EXTT7=
EXTT8=
PLAYORDER=
